<svg width="34" height="34" viewBox="0 0 34 34" fill="none" xmlns="http://www.w3.org/2000/svg"><path d="M31.6398 19.266H27.5195C27.4731 19.2663 27.4271 19.2571 27.3843 19.239C27.3415 19.2209 27.3027 19.1942 27.2702 19.1607C27.2362 19.1287 27.2089 19.0902 27.1899 19.0474C27.1708 19.0046 27.1605 18.9584 27.1594 18.9114C27.075 16.2355 25.9672 13.6979 24.0702 11.8352C22.1733 9.97263 19.6361 8.93116 16.9953 8.93116C14.3545 8.93116 11.8172 9.97263 9.92032 11.8352C8.0234 13.6979 6.91557 16.2355 6.83118 18.9114C6.83009 18.9584 6.81972 19.0046 6.80069 19.0474C6.78166 19.0902 6.75435 19.1287 6.72038 19.1607C6.6879 19.1942 6.6491 19.2209 6.60628 19.239C6.56345 19.2571 6.51747 19.2663 6.47108 19.266H2.36112C2.26356 19.2636 2.1706 19.2234 2.10143 19.1536C2.06746 19.1175 2.04149 19.0744 2.02526 19.0273C2.00526 18.9822 1.99692 18.9326 2.00102 18.8833C2.0853 14.9069 3.70262 11.1221 6.50638 8.34004C9.31014 5.55798 13.0773 4 17.0005 4C20.9237 4 24.6908 5.55798 27.4946 8.34004C30.2983 11.1221 31.9156 14.9069 31.9999 18.8833C32.0009 18.9336 31.9927 18.9836 31.9757 19.0308C31.9566 19.0773 31.9297 19.12 31.896 19.1571C31.8607 19.1928 31.8182 19.2204 31.7714 19.2379C31.7262 19.2559 31.6781 19.2655 31.6294 19.266H31.6398Z" fill="#F9AF19"></path><path d="M31.9816 28.649C31.9767 28.7404 31.9386 28.8268 31.8747 28.8916C31.8108 28.9564 31.7256 28.995 31.6354 29C31.6354 29 28.8896 29 28.6265 29C25.2575 29 20.0257 25.1176 16.9787 25.1176C14.2295 25.1176 8.66878 29 5.43483 29H2.36361C2.27036 28.9993 2.18089 28.9625 2.11336 28.8973C2.04584 28.8321 2.00532 28.7434 2.00004 28.649V24.5033C1.99928 24.4548 2.00842 24.4067 2.02689 24.362C2.04537 24.3173 2.07277 24.277 2.10738 24.2435C2.14036 24.2085 2.18016 24.1807 2.22426 24.162C2.26836 24.1432 2.31581 24.134 2.36361 24.1347H5.33095C6.2656 24.1369 7.18669 23.908 8.01437 23.4678C12.0308 21.33 14.3369 20.2559 16.9787 20.2559C19.6067 20.2559 22.0339 21.3862 25.9119 23.4608C26.7428 23.9032 27.6672 24.1345 28.6057 24.1347H31.6146C31.6624 24.134 31.7099 24.1432 31.754 24.162C31.7981 24.1807 31.8378 24.2085 31.8708 24.2435C31.9372 24.3133 31.9744 24.4064 31.9747 24.5033L31.9816 28.649Z" fill="#2CD0CD"></path></svg>